{
    "asset": {
        "version": "2.0",
        "generator": "Open Asset Import Library (assimp v5.4.0)"
    },
    "extensionsUsed": [
        "KHR_materials_specular",
        "KHR_materials_volume",
        "FB_ngon_encoding"
    ],
    "accessors": [
        {
            "bufferView": 0,
            "byteOffset": 0,
            "componentType": 5126,
            "count": 629876,
            "type": "VEC3",
            "max": [
                81.77391052246094,
                151.0606689453125,
                169.55812072753906
            ],
            "min": [
                -81.76991271972656,
                -151.12911987304688,
                -0.102142333984375
            ]
        },
        {
            "bufferView": 1,
            "byteOffset": 0,
            "componentType": 5126,
            "count": 629876,
            "type": "VEC3",
            "max": [
                1.0,
                1.0,
                1.0
            ],
            "min": [
                -1.0,
                -1.0,
                -1.0
            ]
        },
        {
            "bufferView": 2,
            "byteOffset": 0,
            "componentType": 5126,
            "count": 629876,
            "type": "VEC4",
            "max": [
                0.9372549057006836,
                0.929411768913269,
                0.9137254953384399,
                1.0
            ],
            "min": [
                0.15294118225574493,
                0.12941177189350128,
                0.10980392247438431,
                1.0
            ]
        },
        {
            "bufferView": 3,
            "byteOffset": 0,
            "componentType": 5125,
            "count": 3754662,
            "type": "SCALAR",
            "max": [
                629875
            ],
            "min": [
                0
            ]
        }
    ],
    "buffers": [
        {
            "byteLength": 40213688,
            "uri": "SINH-MA-835.bin"
        }
    ],
    "bufferViews": [
        {
            "buffer": 0,
            "byteOffset": 0,
            "byteLength": 7558512,
            "target": 34962
        },
        {
            "buffer": 0,
            "byteOffset": 7558512,
            "byteLength": 7558512,
            "target": 34962
        },
        {
            "buffer": 0,
            "byteOffset": 15117024,
            "byteLength": 10078016,
            "target": 34962
        },
        {
            "buffer": 0,
            "byteOffset": 25195040,
            "byteLength": 15018648,
            "target": 34963
        }
    ],
    "materials": [
        {
            "name": "material",
            "pbrMetallicRoughness": {
                "metallicFactor": 0.0
            },
            "doubleSided": true,
            "extensions": {
                "KHR_materials_specular": {
                    "specularFactor": 1.0
                }
            }
        }
    ],
    "meshes": [
        {
            "primitives": [
                {
                    "mode": 4,
                    "material": 0,
                    "indices": 3,
                    "attributes": {
                        "POSITION": 0,
                        "NORMAL": 1,
                        "COLOR_0": 2
                    }
                }
            ]
        }
    ],
    "nodes": [
        {
            "mesh": 0
        }
    ],
    "scenes": [
        {
            "nodes": [
                0
            ]
        }
    ],
    "scene": 0
}