{
	"asset":{
		"generator":"Khronos glTF Blender I/O v5.1.20",
		"version":"2.0"
	},
	"scene":0,
	"scenes":[
		{
			"name":"Scene",
			"nodes":[
				0,
				1
			]
		}
	],
	"nodes":[
		{
			"mesh":0,
			"name":"Mesh_0",
			"rotation":[
				-0.028802696615457535,
				0.9512184858322144,
				0.29076069593429565,
				0.09905602782964706
			],
			"translation":[
				-24.709890365600586,
				33.88323974609375,
				55.301204681396484
			]
		},
		{
			"mesh":1,
			"name":"Mesh_0.001",
			"rotation":[
				0.6878328323364258,
				0.6470375657081604,
				0.3285520076751709,
				0.016793454065918922
			],
			"translation":[
				-33.91584777832031,
				7.105484962463379,
				57.6033935546875
			]
		}
	],
	"materials":[
		{
			"doubleSided":true,
			"name":"material.003",
			"pbrMetallicRoughness":{
				"metallicFactor":0
			}
		},
		{
			"doubleSided":true,
			"name":"material.004",
			"pbrMetallicRoughness":{
				"metallicFactor":0
			}
		}
	],
	"meshes":[
		{
			"name":"Mesh_0.003",
			"primitives":[
				{
					"attributes":{
						"POSITION":0,
						"NORMAL":1
					},
					"indices":2,
					"material":0
				}
			]
		},
		{
			"name":"Mesh_0.004",
			"primitives":[
				{
					"attributes":{
						"POSITION":3,
						"NORMAL":4
					},
					"indices":5,
					"material":1
				}
			]
		}
	],
	"accessors":[
		{
			"bufferView":0,
			"componentType":5126,
			"count":862849,
			"max":[
				108.17526245117188,
				64.73944854736328,
				109.43116760253906
			],
			"min":[
				-108.29266357421875,
				-64.99468994140625,
				-0.135284423828125
			],
			"type":"VEC3"
		},
		{
			"bufferView":1,
			"componentType":5126,
			"count":862849,
			"type":"VEC3"
		},
		{
			"bufferView":2,
			"componentType":5125,
			"count":5159313,
			"type":"SCALAR"
		},
		{
			"bufferView":3,
			"componentType":5126,
			"count":542209,
			"max":[
				52.273338317871094,
				89.97482299804688,
				119.41885375976562
			],
			"min":[
				-52.27120590209961,
				-89.93342590332031,
				-0.00213623046875
			],
			"type":"VEC3"
		},
		{
			"bufferView":4,
			"componentType":5126,
			"count":542209,
			"type":"VEC3"
		},
		{
			"bufferView":5,
			"componentType":5125,
			"count":3255462,
			"type":"SCALAR"
		}
	],
	"bufferViews":[
		{
			"buffer":0,
			"byteLength":10354188,
			"byteOffset":0,
			"target":34962
		},
		{
			"buffer":0,
			"byteLength":10354188,
			"byteOffset":10354188,
			"target":34962
		},
		{
			"buffer":0,
			"byteLength":20637252,
			"byteOffset":20708376,
			"target":34963
		},
		{
			"buffer":0,
			"byteLength":6506508,
			"byteOffset":41345628,
			"target":34962
		},
		{
			"buffer":0,
			"byteLength":6506508,
			"byteOffset":47852136,
			"target":34962
		},
		{
			"buffer":0,
			"byteLength":13021848,
			"byteOffset":54358644,
			"target":34963
		}
	],
	"buffers":[
		{
			"byteLength":67380492,
			"uri":"SINH-MA-1599.bin"
		}
	]
}
